<?xml version="1.0" encoding="UTF-8" standalone="no"?>
<!DOCTYPE svg PUBLIC "-//W3C//DTD SVG 1.1//EN"
 "http://www.w3.org/Graphics/SVG/1.1/DTD/svg11.dtd">
<!-- Generated by graphviz version 2.40.1 (20161225.0304)
 -->
<!-- Title: G Pages: 1 -->
<svg width="357pt" height="404pt"
 viewBox="0.00 0.00 357.00 404.00" xmlns="http://www.w3.org/2000/svg" xmlns:xlink="http://www.w3.org/1999/xlink">
<g id="graph0" class="graph" transform="scale(1 1) rotate(0) translate(4 400)">
<title>G</title>
<polygon fill="#ffffff" stroke="transparent" points="-4,4 -4,-400 353,-400 353,4 -4,4"/>
<!-- Variant/debug -->
<g id="node1" class="node">
<title>Variant/debug</title>
<polygon fill="#add8e6" stroke="#000000" stroke-width="2" points="130,-36 4,-36 4,0 130,0 130,-36"/>
<text text-anchor="middle" x="67" y="-14.3" font-family="Monaco" font-size="14.00" fill="#000000">Variant/debug</text>
</g>
<!-- variant -->
<g id="node2" class="node">
<title>variant</title>
<polygon fill="#d3d3d3" stroke="#000000" points="104.5,-108 29.5,-108 29.5,-72 104.5,-72 104.5,-108"/>
<text text-anchor="middle" x="67" y="-86.3" font-family="Monaco" font-size="14.00" fill="#000000">variant</text>
</g>
<!-- variant&#45;&gt;Variant/debug -->
<g id="edge1" class="edge">
<title>variant&#45;&gt;Variant/debug</title>
<path fill="none" stroke="#000000" d="M67,-71.8314C67,-61 67,-47.2876 67,-36.4133"/>
</g>
<!-- Platform/linux -->
<g id="node3" class="node">
<title>Platform/linux</title>
<polygon fill="#add8e6" stroke="#000000" stroke-width="2" points="134,-180 0,-180 0,-144 134,-144 134,-180"/>
<text text-anchor="middle" x="67" y="-158.3" font-family="Monaco" font-size="14.00" fill="#000000">Platform/linux</text>
</g>
<!-- Platform/linux&#45;&gt;variant -->
<g id="edge2" class="edge">
<title>Platform/linux&#45;&gt;variant</title>
<path fill="none" stroke="#000000" d="M67,-143.8314C67,-136.131 67,-126.9743 67,-118.4166"/>
<polygon fill="#000000" stroke="#000000" points="70.5001,-118.4132 67,-108.4133 63.5001,-118.4133 70.5001,-118.4132"/>
</g>
<!-- platform -->
<g id="node4" class="node">
<title>platform</title>
<polygon fill="#d3d3d3" stroke="#000000" points="109,-252 25,-252 25,-216 109,-216 109,-252"/>
<text text-anchor="middle" x="67" y="-230.3" font-family="Monaco" font-size="14.00" fill="#000000">platform</text>
</g>
<!-- platform&#45;&gt;Platform/linux -->
<g id="edge3" class="edge">
<title>platform&#45;&gt;Platform/linux</title>
<path fill="none" stroke="#000000" d="M67,-215.8314C67,-205 67,-191.2876 67,-180.4133"/>
</g>
<!-- Compiler/clang -->
<g id="node5" class="node">
<title>Compiler/clang</title>
<polygon fill="#add8e6" stroke="#000000" points="321,-180 187,-180 187,-144 321,-144 321,-180"/>
<text text-anchor="middle" x="254" y="-158.3" font-family="Monaco" font-size="14.00" fill="#000000">Compiler/clang</text>
</g>
<!-- Language/C++14 -->
<g id="node6" class="node">
<title>Language/C++14</title>
<polygon fill="#ffffff" stroke="#000000" stroke-width="2" points="349,-324 215,-324 215,-288 349,-288 349,-324"/>
<text text-anchor="middle" x="282" y="-302.3" font-family="Monaco" font-size="14.00" fill="#000000">Language/C++14</text>
</g>
<!-- Language/C++14&#45;&gt;Compiler/clang -->
<g id="edge4" class="edge">
<title>Language/C++14&#45;&gt;Compiler/clang</title>
<path fill="none" stroke="#000000" d="M280.4243,-287.9292C278.6363,-269.6554 275.2651,-240.6656 270,-216 267.4281,-203.9513 263.5119,-190.6816 260.1978,-180.3117"/>
</g>
<!-- Language/C++17 -->
<g id="node7" class="node">
<title>Language/C++17</title>
<polygon fill="#ffffff" stroke="#000000" stroke-width="2" points="261,-252 127,-252 127,-216 261,-216 261,-252"/>
<text text-anchor="middle" x="194" y="-230.3" font-family="Monaco" font-size="14.00" fill="#000000">Language/C++17</text>
</g>
<!-- Language/C++17&#45;&gt;Compiler/clang -->
<g id="edge5" class="edge">
<title>Language/C++17&#45;&gt;Compiler/clang</title>
<path fill="none" stroke="#000000" d="M209.1405,-215.8314C218.1666,-205 229.5937,-191.2876 238.6556,-180.4133"/>
</g>
<!-- lib -->
<g id="node8" class="node">
<title>lib</title>
<polygon fill="#ffa500" stroke="#000000" stroke-width="2" points="190,-324 136,-324 136,-288 190,-288 190,-324"/>
<text text-anchor="middle" x="163" y="-302.3" font-family="Monaco" font-size="14.00" fill="#000000">lib</text>
</g>
<!-- lib&#45;&gt;platform -->
<g id="edge6" class="edge">
<title>lib&#45;&gt;platform</title>
<path fill="none" stroke="#000000" stroke-opacity="0.372549" d="M138.7751,-287.8314C126.8372,-278.8779 112.2744,-267.9558 99.394,-258.2955"/>
<polygon fill="none" stroke="#000000" stroke-opacity="0.372549" points="101.3171,-255.3629 91.2171,-252.1628 97.1171,-260.9629 101.3171,-255.3629"/>
</g>
<!-- lib&#45;&gt;Language/C++17 -->
<g id="edge7" class="edge">
<title>lib&#45;&gt;Language/C++17</title>
<path fill="none" stroke="#000000" stroke-opacity="0.372549" d="M170.8226,-287.8314C174.2109,-279.9617 178.2541,-270.5712 182.0076,-261.8533"/>
<polygon fill="none" stroke="#000000" stroke-opacity="0.372549" points="185.3321,-262.9822 186.0721,-252.4133 178.9027,-260.214 185.3321,-262.9822"/>
</g>
<!-- app -->
<g id="node9" class="node">
<title>app</title>
<polygon fill="#ffa500" stroke="#000000" stroke-width="2" points="190,-396 136,-396 136,-360 190,-360 190,-396"/>
<text text-anchor="middle" x="163" y="-374.3" font-family="Monaco" font-size="14.00" fill="#000000">app</text>
</g>
<!-- app&#45;&gt;platform -->
<g id="edge9" class="edge">
<title>app&#45;&gt;platform</title>
<path fill="none" stroke="#000000" stroke-opacity="0.372549" d="M150.8415,-359.7623C134.1067,-334.66 103.8678,-289.3017 84.6447,-260.4671"/>
<polygon fill="none" stroke="#000000" stroke-opacity="0.372549" points="87.519,-258.4687 79.0597,-252.0896 81.6946,-262.3516 87.519,-258.4687"/>
</g>
<!-- app&#45;&gt;Language/C++14 -->
<g id="edge10" class="edge">
<title>app&#45;&gt;Language/C++14</title>
<path fill="none" stroke="#000000" stroke-opacity="0.372549" d="M190.0029,-361.6621C205.7696,-352.1226 225.9279,-339.926 243.3541,-329.3824"/>
<polygon fill="none" stroke="#000000" stroke-opacity="0.372549" points="245.436,-332.2136 252.18,-324.0423 241.8123,-326.2245 245.436,-332.2136"/>
</g>
<!-- app&#45;&gt;lib -->
<g id="edge8" class="edge">
<title>app&#45;&gt;lib</title>
<path fill="none" stroke="#000000" stroke-opacity="0.372549" d="M163,-359.8314C163,-352.131 163,-342.9743 163,-334.4166"/>
<polygon fill="none" stroke="#000000" stroke-opacity="0.372549" points="166.5001,-334.4132 163,-324.4133 159.5001,-334.4133 166.5001,-334.4132"/>
</g>
</g>
</svg>
