<?xml version="1.0" encoding="UTF-8" standalone="no"?>
<!DOCTYPE svg PUBLIC "-//W3C//DTD SVG 1.1//EN"
 "http://www.w3.org/Graphics/SVG/1.1/DTD/svg11.dtd">
<!-- Generated by graphviz version 12.2.1 (20241206.2353)
 -->
<!-- Title: G Pages: 1 -->
<svg width="352pt" height="404pt"
 viewBox="0.00 0.00 351.50 404.00" xmlns="http://www.w3.org/2000/svg" xmlns:xlink="http://www.w3.org/1999/xlink">
<g id="graph0" class="graph" transform="scale(1 1) rotate(0) translate(4 400)">
<title>G</title>
<polygon fill="white" stroke="none" points="-4,4 -4,-400 347.5,-400 347.5,4 -4,4"/>
<!-- Variant/debug -->
<g id="node1" class="node">
<title>Variant/debug</title>
<polygon fill="lightblue" stroke="black" stroke-width="2" points="127.38,-36 4.12,-36 4.12,0 127.38,0 127.38,-36"/>
<text text-anchor="middle" x="65.75" y="-13.7" font-family="Monaco" font-size="14.00">Variant/debug</text>
</g>
<!-- variant -->
<g id="node2" class="node">
<title>variant</title>
<polygon fill="white" stroke="black" points="102.62,-108 28.88,-108 28.88,-72 102.62,-72 102.62,-108"/>
<text text-anchor="middle" x="65.75" y="-85.7" font-family="Monaco" font-size="14.00">variant</text>
</g>
<!-- variant&#45;&gt;Variant/debug -->
<g id="edge1" class="edge">
<title>variant&#45;&gt;Variant/debug</title>
<path fill="none" stroke="black" d="M65.75,-71.7C65.75,-61.01 65.75,-47.33 65.75,-36.59"/>
</g>
<!-- Platform/linux -->
<g id="node3" class="node">
<title>Platform/linux</title>
<polygon fill="lightblue" stroke="black" stroke-width="2" points="131.5,-180 0,-180 0,-144 131.5,-144 131.5,-180"/>
<text text-anchor="middle" x="65.75" y="-157.7" font-family="Monaco" font-size="14.00">Platform/linux</text>
</g>
<!-- Platform/linux&#45;&gt;variant -->
<g id="edge2" class="edge">
<title>Platform/linux&#45;&gt;variant</title>
<path fill="none" stroke="black" d="M65.75,-143.34C65.75,-136.24 65.75,-127.86 65.75,-119.92"/>
<polygon fill="black" stroke="black" points="69.25,-119.93 65.75,-109.93 62.25,-119.93 69.25,-119.93"/>
</g>
<!-- platform -->
<g id="node4" class="node">
<title>platform</title>
<polygon fill="white" stroke="black" points="106.75,-252 24.75,-252 24.75,-216 106.75,-216 106.75,-252"/>
<text text-anchor="middle" x="65.75" y="-229.7" font-family="Monaco" font-size="14.00">platform</text>
</g>
<!-- platform&#45;&gt;Platform/linux -->
<g id="edge3" class="edge">
<title>platform&#45;&gt;Platform/linux</title>
<path fill="none" stroke="black" d="M65.75,-215.7C65.75,-205.01 65.75,-191.33 65.75,-180.59"/>
</g>
<!-- Compiler/clang -->
<g id="node5" class="node">
<title>Compiler/clang</title>
<polygon fill="lightblue" stroke="black" points="315.5,-180 184,-180 184,-144 315.5,-144 315.5,-180"/>
<text text-anchor="middle" x="249.75" y="-157.7" font-family="Monaco" font-size="14.00">Compiler/clang</text>
</g>
<!-- Language/C++14 -->
<g id="node6" class="node">
<title>Language/C++14</title>
<polygon fill="white" stroke="black" stroke-width="2" points="343.5,-324 212,-324 212,-288 343.5,-288 343.5,-324"/>
<text text-anchor="middle" x="277.75" y="-301.7" font-family="Monaco" font-size="14.00">Language/C++14</text>
</g>
<!-- Language/C++14&#45;&gt;Compiler/clang -->
<g id="edge4" class="edge">
<title>Language/C++14&#45;&gt;Compiler/clang</title>
<path fill="none" stroke="black" d="M276.18,-287.12C274.4,-269.05 271.04,-240.38 265.75,-216 263.14,-203.98 259.14,-190.73 255.79,-180.48"/>
</g>
<!-- Language/C++17 -->
<g id="node7" class="node">
<title>Language/C++17</title>
<polygon fill="white" stroke="black" stroke-width="2" points="256.5,-252 125,-252 125,-216 256.5,-216 256.5,-252"/>
<text text-anchor="middle" x="190.75" y="-229.7" font-family="Monaco" font-size="14.00">Language/C++17</text>
</g>
<!-- Language/C++17&#45;&gt;Compiler/clang -->
<g id="edge5" class="edge">
<title>Language/C++17&#45;&gt;Compiler/clang</title>
<path fill="none" stroke="black" d="M205.64,-215.34C214.65,-204.64 226.1,-191.06 235.07,-180.42"/>
</g>
<!-- lib -->
<g id="node8" class="node">
<title>lib</title>
<polygon fill="white" stroke="black" stroke-width="2" points="186.75,-324 132.75,-324 132.75,-288 186.75,-288 186.75,-324"/>
<text text-anchor="middle" x="159.75" y="-301.7" font-family="Monaco" font-size="14.00">lib</text>
</g>
<!-- lib&#45;&gt;platform -->
<g id="edge6" class="edge">
<title>lib&#45;&gt;platform</title>
<path fill="none" stroke="#000000" stroke-opacity="0.372549" d="M136.03,-287.34C124.59,-278.82 110.68,-268.46 98.27,-259.22"/>
<polygon fill="none" stroke="#000000" stroke-opacity="0.372549" points="100.46,-256.49 90.35,-253.32 96.28,-262.1 100.46,-256.49"/>
</g>
<!-- lib&#45;&gt;Language/C++17 -->
<g id="edge7" class="edge">
<title>lib&#45;&gt;Language/C++17</title>
<path fill="none" stroke="#000000" stroke-opacity="0.372549" d="M167.57,-287.34C170.82,-280.01 174.66,-271.34 178.27,-263.18"/>
<polygon fill="none" stroke="#000000" stroke-opacity="0.372549" points="181.36,-264.85 182.21,-254.29 174.96,-262.01 181.36,-264.85"/>
</g>
<!-- app -->
<g id="node9" class="node">
<title>app</title>
<polygon fill="white" stroke="black" stroke-width="2" points="186.75,-396 132.75,-396 132.75,-360 186.75,-360 186.75,-396"/>
<text text-anchor="middle" x="159.75" y="-373.7" font-family="Monaco" font-size="14.00">app</text>
</g>
<!-- app&#45;&gt;platform -->
<g id="edge9" class="edge">
<title>app&#45;&gt;platform</title>
<path fill="none" stroke="#000000" stroke-opacity="0.372549" d="M147.67,-359.39C140.64,-349.1 131.64,-335.85 123.75,-324 110,-303.33 94.68,-279.8 83.24,-262.12"/>
<polygon fill="none" stroke="#000000" stroke-opacity="0.372549" points="86.18,-260.23 77.81,-253.73 80.3,-264.03 86.18,-260.23"/>
</g>
<!-- app&#45;&gt;Language/C++14 -->
<g id="edge10" class="edge">
<title>app&#45;&gt;Language/C++14</title>
<path fill="none" stroke="#000000" stroke-opacity="0.372549" d="M187.71,-360.41C202.61,-351.57 221.21,-340.54 237.62,-330.81"/>
<polygon fill="none" stroke="#000000" stroke-opacity="0.372549" points="239.39,-333.83 246.2,-325.71 235.82,-327.81 239.39,-333.83"/>
</g>
<!-- app&#45;&gt;lib -->
<g id="edge8" class="edge">
<title>app&#45;&gt;lib</title>
<path fill="none" stroke="#000000" stroke-opacity="0.372549" d="M159.75,-359.34C159.75,-352.34 159.75,-344.12 159.75,-336.28"/>
<polygon fill="none" stroke="#000000" stroke-opacity="0.372549" points="163.25,-336.42 159.75,-326.42 156.25,-336.42 163.25,-336.42"/>
</g>
</g>
</svg>
