<?xml version="1.0" encoding="UTF-8" standalone="no"?>
<!DOCTYPE svg PUBLIC "-//W3C//DTD SVG 1.1//EN"
 "http://www.w3.org/Graphics/SVG/1.1/DTD/svg11.dtd">
<!-- Generated by graphviz version 2.43.20190912.0211 (20190912.0211)
 -->
<!-- Title: G Pages: 1 -->
<svg width="354pt" height="404pt"
 viewBox="0.00 0.00 353.50 404.00" xmlns="http://www.w3.org/2000/svg" xmlns:xlink="http://www.w3.org/1999/xlink">
<g id="graph0" class="graph" transform="scale(1 1) rotate(0) translate(4 400)">
<title>G</title>
<polygon fill="white" stroke="transparent" points="-4,4 -4,-400 349.5,-400 349.5,4 -4,4"/>
<!-- Variant/debug -->
<g id="node1" class="node">
<title>Variant/debug</title>
<polygon fill="lightblue" stroke="black" stroke-width="2" points="114,-36 0,-36 0,0 114,0 114,-36"/>
<text text-anchor="middle" x="57" y="-14.3" font-family="Monaco" font-size="14.00">Variant/debug</text>
</g>
<!-- variant -->
<g id="node2" class="node">
<title>variant</title>
<polygon fill="lightgrey" stroke="black" points="89.5,-108 24.5,-108 24.5,-72 89.5,-72 89.5,-108"/>
<text text-anchor="middle" x="57" y="-86.3" font-family="Monaco" font-size="14.00">variant</text>
</g>
<!-- variant&#45;&gt;Variant/debug -->
<g id="edge1" class="edge">
<title>variant&#45;&gt;Variant/debug</title>
<path fill="none" stroke="black" d="M57,-71.7C57,-60.85 57,-46.92 57,-36.1"/>
</g>
<!-- Platform/linux -->
<g id="node3" class="node">
<title>Platform/linux</title>
<polygon fill="lightblue" stroke="black" stroke-width="2" points="113.5,-180 0.5,-180 0.5,-144 113.5,-144 113.5,-180"/>
<text text-anchor="middle" x="57" y="-158.3" font-family="Monaco" font-size="14.00">Platform/linux</text>
</g>
<!-- Platform/linux&#45;&gt;variant -->
<g id="edge2" class="edge">
<title>Platform/linux&#45;&gt;variant</title>
<path fill="none" stroke="black" d="M57,-143.7C57,-135.98 57,-126.71 57,-118.11"/>
<polygon fill="black" stroke="black" points="60.5,-118.1 57,-108.1 53.5,-118.1 60.5,-118.1"/>
</g>
<!-- platform -->
<g id="node4" class="node">
<title>platform</title>
<polygon fill="lightgrey" stroke="black" points="94.5,-252 19.5,-252 19.5,-216 94.5,-216 94.5,-252"/>
<text text-anchor="middle" x="57" y="-230.3" font-family="Monaco" font-size="14.00">platform</text>
</g>
<!-- platform&#45;&gt;Platform/linux -->
<g id="edge3" class="edge">
<title>platform&#45;&gt;Platform/linux</title>
<path fill="none" stroke="black" d="M57,-215.7C57,-204.85 57,-190.92 57,-180.1"/>
</g>
<!-- Compiler/clang -->
<g id="node5" class="node">
<title>Compiler/clang</title>
<polygon fill="lightblue" stroke="black" points="297.5,-180 176.5,-180 176.5,-144 297.5,-144 297.5,-180"/>
<text text-anchor="middle" x="237" y="-158.3" font-family="Monaco" font-size="14.00">Compiler/clang</text>
</g>
<!-- Language/C++14 -->
<g id="node6" class="node">
<title>Language/C++14</title>
<polygon fill="white" stroke="black" stroke-width="2" points="345.5,-324 204.5,-324 204.5,-288 345.5,-288 345.5,-324"/>
<text text-anchor="middle" x="275" y="-302.3" font-family="Monaco" font-size="14.00">Language/C++14</text>
</g>
<!-- Language/C++14&#45;&gt;Compiler/clang -->
<g id="edge4" class="edge">
<title>Language/C++14&#45;&gt;Compiler/clang</title>
<path fill="none" stroke="black" d="M274.33,-287.92C273.23,-269.75 270.39,-240.32 263,-216 259.19,-203.45 252.69,-190.2 247.14,-180.09"/>
</g>
<!-- Language/C++17 -->
<g id="node7" class="node">
<title>Language/C++17</title>
<polygon fill="white" stroke="black" stroke-width="2" points="253.5,-252 112.5,-252 112.5,-216 253.5,-216 253.5,-252"/>
<text text-anchor="middle" x="183" y="-230.3" font-family="Monaco" font-size="14.00">Language/C++17</text>
</g>
<!-- Language/C++17&#45;&gt;Compiler/clang -->
<g id="edge5" class="edge">
<title>Language/C++17&#45;&gt;Compiler/clang</title>
<path fill="none" stroke="black" d="M196.35,-215.7C204.72,-204.85 215.46,-190.92 223.81,-180.1"/>
</g>
<!-- lib -->
<g id="node8" class="node">
<title>lib</title>
<polygon fill="orange" stroke="black" stroke-width="2" points="179,-324 125,-324 125,-288 179,-288 179,-324"/>
<text text-anchor="middle" x="152" y="-302.3" font-family="Monaco" font-size="14.00">lib</text>
</g>
<!-- lib&#45;&gt;platform -->
<g id="edge6" class="edge">
<title>lib&#45;&gt;platform</title>
<path fill="none" stroke="#000000" stroke-opacity="0.372549" d="M128.52,-287.7C116.44,-278.8 101.55,-267.82 88.48,-258.2"/>
<polygon fill="none" stroke="#000000" stroke-opacity="0.372549" points="90.34,-255.22 80.21,-252.1 86.19,-260.85 90.34,-255.22"/>
</g>
<!-- lib&#45;&gt;Language/C++17 -->
<g id="edge7" class="edge">
<title>lib&#45;&gt;Language/C++17</title>
<path fill="none" stroke="#000000" stroke-opacity="0.372549" d="M159.66,-287.7C163.19,-279.73 167.46,-270.1 171.37,-261.26"/>
<polygon fill="none" stroke="#000000" stroke-opacity="0.372549" points="174.58,-262.67 175.43,-252.1 168.18,-259.83 174.58,-262.67"/>
</g>
<!-- app -->
<g id="node9" class="node">
<title>app</title>
<polygon fill="orange" stroke="black" stroke-width="2" points="179,-396 125,-396 125,-360 179,-360 179,-396"/>
<text text-anchor="middle" x="152" y="-374.3" font-family="Monaco" font-size="14.00">app</text>
</g>
<!-- app&#45;&gt;platform -->
<g id="edge9" class="edge">
<title>app&#45;&gt;platform</title>
<path fill="none" stroke="#000000" stroke-opacity="0.372549" d="M140.28,-359.85C133.22,-349.49 124.06,-336.01 116,-324 101.75,-302.76 85.72,-278.57 73.98,-260.77"/>
<polygon fill="none" stroke="#000000" stroke-opacity="0.372549" points="76.68,-258.52 68.25,-252.1 70.84,-262.37 76.68,-258.52"/>
</g>
<!-- app&#45;&gt;Language/C++14 -->
<g id="edge10" class="edge">
<title>app&#45;&gt;Language/C++14</title>
<path fill="none" stroke="#000000" stroke-opacity="0.372549" d="M179.3,-361.46C195.96,-351.98 217.54,-339.7 235.99,-329.2"/>
<polygon fill="none" stroke="#000000" stroke-opacity="0.372549" points="237.8,-332.2 244.76,-324.21 234.34,-326.12 237.8,-332.2"/>
</g>
<!-- app&#45;&gt;lib -->
<g id="edge8" class="edge">
<title>app&#45;&gt;lib</title>
<path fill="none" stroke="#000000" stroke-opacity="0.372549" d="M152,-359.7C152,-351.98 152,-342.71 152,-334.11"/>
<polygon fill="none" stroke="#000000" stroke-opacity="0.372549" points="155.5,-334.1 152,-324.1 148.5,-334.1 155.5,-334.1"/>
</g>
</g>
</svg>
