<?xml version="1.0" encoding="UTF-8" standalone="no"?>
<!DOCTYPE svg PUBLIC "-//W3C//DTD SVG 1.1//EN"
 "http://www.w3.org/Graphics/SVG/1.1/DTD/svg11.dtd">
<!-- Generated by graphviz version 2.40.1 (20161225.0304)
 -->
<!-- Title: G Pages: 1 -->
<svg width="360pt" height="404pt"
 viewBox="0.00 0.00 359.50 404.00" xmlns="http://www.w3.org/2000/svg" xmlns:xlink="http://www.w3.org/1999/xlink">
<g id="graph0" class="graph" transform="scale(1 1) rotate(0) translate(4 400)">
<title>G</title>
<polygon fill="#ffffff" stroke="transparent" points="-4,4 -4,-400 355.5,-400 355.5,4 -4,4"/>
<!-- Variant/debug -->
<g id="node1" class="node">
<title>Variant/debug</title>
<polygon fill="#add8e6" stroke="#000000" stroke-width="2" points="117,-36 0,-36 0,0 117,0 117,-36"/>
<text text-anchor="middle" x="58.5" y="-14.3" font-family="Monaco" font-size="14.00" fill="#000000">Variant/debug</text>
</g>
<!-- variant -->
<g id="node2" class="node">
<title>variant</title>
<polygon fill="#d3d3d3" stroke="#000000" points="92,-108 25,-108 25,-72 92,-72 92,-108"/>
<text text-anchor="middle" x="58.5" y="-86.3" font-family="Monaco" font-size="14.00" fill="#000000">variant</text>
</g>
<!-- variant&#45;&gt;Variant/debug -->
<g id="edge1" class="edge">
<title>variant&#45;&gt;Variant/debug</title>
<path fill="none" stroke="#000000" d="M58.5,-71.8314C58.5,-61 58.5,-47.2876 58.5,-36.4133"/>
</g>
<!-- Platform/linux -->
<g id="node3" class="node">
<title>Platform/linux</title>
<polygon fill="#add8e6" stroke="#000000" stroke-width="2" points="116.5,-180 .5,-180 .5,-144 116.5,-144 116.5,-180"/>
<text text-anchor="middle" x="58.5" y="-158.3" font-family="Monaco" font-size="14.00" fill="#000000">Platform/linux</text>
</g>
<!-- Platform/linux&#45;&gt;variant -->
<g id="edge2" class="edge">
<title>Platform/linux&#45;&gt;variant</title>
<path fill="none" stroke="#000000" d="M58.5,-143.8314C58.5,-136.131 58.5,-126.9743 58.5,-118.4166"/>
<polygon fill="#000000" stroke="#000000" points="62.0001,-118.4132 58.5,-108.4133 55.0001,-118.4133 62.0001,-118.4132"/>
</g>
<!-- platform -->
<g id="node4" class="node">
<title>platform</title>
<polygon fill="#d3d3d3" stroke="#000000" points="97.5,-252 19.5,-252 19.5,-216 97.5,-216 97.5,-252"/>
<text text-anchor="middle" x="58.5" y="-230.3" font-family="Monaco" font-size="14.00" fill="#000000">platform</text>
</g>
<!-- platform&#45;&gt;Platform/linux -->
<g id="edge3" class="edge">
<title>platform&#45;&gt;Platform/linux</title>
<path fill="none" stroke="#000000" d="M58.5,-215.8314C58.5,-205 58.5,-191.2876 58.5,-180.4133"/>
</g>
<!-- Compiler/clang -->
<g id="node5" class="node">
<title>Compiler/clang</title>
<polygon fill="#add8e6" stroke="#000000" points="303.5,-180 179.5,-180 179.5,-144 303.5,-144 303.5,-180"/>
<text text-anchor="middle" x="241.5" y="-158.3" font-family="Monaco" font-size="14.00" fill="#000000">Compiler/clang</text>
</g>
<!-- Language/C++14 -->
<g id="node6" class="node">
<title>Language/C++14</title>
<polygon fill="#ffffff" stroke="#000000" stroke-width="2" points="351.5,-324 207.5,-324 207.5,-288 351.5,-288 351.5,-324"/>
<text text-anchor="middle" x="279.5" y="-302.3" font-family="Monaco" font-size="14.00" fill="#000000">Language/C++14</text>
</g>
<!-- Language/C++14&#45;&gt;Compiler/clang -->
<g id="edge4" class="edge">
<title>Language/C++14&#45;&gt;Compiler/clang</title>
<path fill="none" stroke="#000000" d="M279.0847,-287.6971C278.246,-269.2427 275.7655,-240.1153 268.5,-216 264.7507,-203.5554 258.2988,-190.4971 252.6421,-180.3393"/>
</g>
<!-- Language/C++17 -->
<g id="node7" class="node">
<title>Language/C++17</title>
<polygon fill="#ffffff" stroke="#000000" stroke-width="2" points="259.5,-252 115.5,-252 115.5,-216 259.5,-216 259.5,-252"/>
<text text-anchor="middle" x="187.5" y="-230.3" font-family="Monaco" font-size="14.00" fill="#000000">Language/C++17</text>
</g>
<!-- Language/C++17&#45;&gt;Compiler/clang -->
<g id="edge5" class="edge">
<title>Language/C++17&#45;&gt;Compiler/clang</title>
<path fill="none" stroke="#000000" d="M201.1265,-215.8314C209.25,-205 219.5343,-191.2876 227.69,-180.4133"/>
</g>
<!-- lib -->
<g id="node8" class="node">
<title>lib</title>
<polygon fill="#ffa500" stroke="#000000" stroke-width="2" points="182.5,-324 128.5,-324 128.5,-288 182.5,-288 182.5,-324"/>
<text text-anchor="middle" x="155.5" y="-302.3" font-family="Monaco" font-size="14.00" fill="#000000">lib</text>
</g>
<!-- lib&#45;&gt;platform -->
<g id="edge6" class="edge">
<title>lib&#45;&gt;platform</title>
<path fill="none" stroke="#000000" stroke-opacity="0.372549" d="M131.0228,-287.8314C118.9605,-278.8779 104.246,-267.9558 91.2314,-258.2955"/>
<polygon fill="none" stroke="#000000" stroke-opacity="0.372549" points="93.0852,-255.3127 82.9694,-252.1628 88.913,-260.9335 93.0852,-255.3127"/>
</g>
<!-- lib&#45;&gt;Language/C++17 -->
<g id="edge7" class="edge">
<title>lib&#45;&gt;Language/C++17</title>
<path fill="none" stroke="#000000" stroke-opacity="0.372549" d="M163.575,-287.8314C167.1102,-279.8771 171.336,-270.369 175.2456,-261.5723"/>
<polygon fill="none" stroke="#000000" stroke-opacity="0.372549" points="178.4532,-262.9729 179.3163,-252.4133 172.0565,-260.1299 178.4532,-262.9729"/>
</g>
<!-- app -->
<g id="node9" class="node">
<title>app</title>
<polygon fill="#ffa500" stroke="#000000" stroke-width="2" points="182.5,-396 128.5,-396 128.5,-360 182.5,-360 182.5,-396"/>
<text text-anchor="middle" x="155.5" y="-374.3" font-family="Monaco" font-size="14.00" fill="#000000">app</text>
</g>
<!-- app&#45;&gt;platform -->
<g id="edge9" class="edge">
<title>app&#45;&gt;platform</title>
<path fill="none" stroke="#000000" stroke-opacity="0.372549" d="M143.2149,-359.7623C126.3057,-334.66 95.7518,-289.3017 76.3285,-260.4671"/>
<polygon fill="none" stroke="#000000" stroke-opacity="0.372549" points="79.1751,-258.4281 70.6854,-252.0896 73.3694,-262.3389 79.1751,-258.4281"/>
</g>
<!-- app&#45;&gt;Language/C++14 -->
<g id="edge10" class="edge">
<title>app&#45;&gt;Language/C++14</title>
<path fill="none" stroke="#000000" stroke-opacity="0.372549" d="M182.7123,-362.1993C199.3768,-352.5231 220.9988,-339.9685 239.5782,-329.1804"/>
<polygon fill="none" stroke="#000000" stroke-opacity="0.372549" points="241.5292,-332.0949 248.4196,-324.0467 238.0142,-326.0413 241.5292,-332.0949"/>
</g>
<!-- app&#45;&gt;lib -->
<g id="edge8" class="edge">
<title>app&#45;&gt;lib</title>
<path fill="none" stroke="#000000" stroke-opacity="0.372549" d="M155.5,-359.8314C155.5,-352.131 155.5,-342.9743 155.5,-334.4166"/>
<polygon fill="none" stroke="#000000" stroke-opacity="0.372549" points="159.0001,-334.4132 155.5,-324.4133 152.0001,-334.4133 159.0001,-334.4132"/>
</g>
</g>
</svg>
