<?xml version="1.0" encoding="UTF-8" standalone="no"?>
<!DOCTYPE svg PUBLIC "-//W3C//DTD SVG 1.1//EN"
 "http://www.w3.org/Graphics/SVG/1.1/DTD/svg11.dtd">
<!-- Generated by graphviz version 12.2.1 (20241206.2353)
 -->
<!-- Title: G Pages: 1 -->
<svg width="458pt" height="332pt"
 viewBox="0.00 0.00 457.50 332.00" xmlns="http://www.w3.org/2000/svg" xmlns:xlink="http://www.w3.org/1999/xlink">
<g id="graph0" class="graph" transform="scale(1 1) rotate(0) translate(4 328)">
<title>G</title>
<polygon fill="white" stroke="none" points="-4,4 -4,-328 453.5,-328 453.5,4 -4,4"/>
<!-- Variant/debug -->
<g id="node1" class="node">
<title>Variant/debug</title>
<polygon fill="lightblue" stroke="black" stroke-width="2" points="127.38,-36 4.12,-36 4.12,0 127.38,0 127.38,-36"/>
<text text-anchor="middle" x="65.75" y="-13.7" font-family="Monaco" font-size="14.00">Variant/debug</text>
</g>
<!-- variant -->
<g id="node2" class="node">
<title>variant</title>
<polygon fill="white" stroke="black" points="102.62,-108 28.88,-108 28.88,-72 102.62,-72 102.62,-108"/>
<text text-anchor="middle" x="65.75" y="-85.7" font-family="Monaco" font-size="14.00">variant</text>
</g>
<!-- variant&#45;&gt;Variant/debug -->
<g id="edge1" class="edge">
<title>variant&#45;&gt;Variant/debug</title>
<path fill="none" stroke="black" d="M65.75,-71.7C65.75,-61.01 65.75,-47.33 65.75,-36.59"/>
</g>
<!-- Platform/linux -->
<g id="node3" class="node">
<title>Platform/linux</title>
<polygon fill="lightblue" stroke="black" stroke-width="2" points="131.5,-180 0,-180 0,-144 131.5,-144 131.5,-180"/>
<text text-anchor="middle" x="65.75" y="-157.7" font-family="Monaco" font-size="14.00">Platform/linux</text>
</g>
<!-- Platform/linux&#45;&gt;variant -->
<g id="edge2" class="edge">
<title>Platform/linux&#45;&gt;variant</title>
<path fill="none" stroke="black" d="M65.75,-143.34C65.75,-136.24 65.75,-127.86 65.75,-119.92"/>
<polygon fill="black" stroke="black" points="69.25,-119.93 65.75,-109.93 62.25,-119.93 69.25,-119.93"/>
</g>
<!-- platform -->
<g id="node4" class="node">
<title>platform</title>
<polygon fill="white" stroke="black" points="106.75,-252 24.75,-252 24.75,-216 106.75,-216 106.75,-252"/>
<text text-anchor="middle" x="65.75" y="-229.7" font-family="Monaco" font-size="14.00">platform</text>
</g>
<!-- platform&#45;&gt;Platform/linux -->
<g id="edge3" class="edge">
<title>platform&#45;&gt;Platform/linux</title>
<path fill="none" stroke="black" d="M65.75,-215.7C65.75,-205.01 65.75,-191.33 65.75,-180.59"/>
</g>
<!-- lib -->
<g id="node5" class="node">
<title>lib</title>
<polygon fill="white" stroke="black" stroke-width="2" points="92.75,-324 38.75,-324 38.75,-288 92.75,-288 92.75,-324"/>
<text text-anchor="middle" x="65.75" y="-301.7" font-family="Monaco" font-size="14.00">lib</text>
</g>
<!-- lib&#45;&gt;platform -->
<g id="edge4" class="edge">
<title>lib&#45;&gt;platform</title>
<path fill="none" stroke="#000000" stroke-opacity="0.372549" d="M65.75,-287.34C65.75,-280.24 65.75,-271.86 65.75,-263.92"/>
<polygon fill="none" stroke="#000000" stroke-opacity="0.372549" points="69.25,-263.93 65.75,-253.93 62.25,-263.93 69.25,-263.93"/>
</g>
<!-- Compiler/clang -->
<g id="node6" class="node">
<title>Compiler/clang</title>
<polygon fill="lightblue" stroke="black" points="343.5,-180 212,-180 212,-144 343.5,-144 343.5,-180"/>
<text text-anchor="middle" x="277.75" y="-157.7" font-family="Monaco" font-size="14.00">Compiler/clang</text>
</g>
<!-- Language/C++14 -->
<g id="node7" class="node">
<title>Language/C++14</title>
<polygon fill="white" stroke="black" stroke-width="2" points="299.5,-252 168,-252 168,-216 299.5,-216 299.5,-252"/>
<text text-anchor="middle" x="233.75" y="-229.7" font-family="Monaco" font-size="14.00">Language/C++14</text>
</g>
<!-- Language/C++14&#45;&gt;Compiler/clang -->
<g id="edge5" class="edge">
<title>Language/C++14&#45;&gt;Compiler/clang</title>
<path fill="none" stroke="black" d="M244.85,-215.34C251.57,-204.64 260.11,-191.06 266.8,-180.42"/>
</g>
<!-- Language/C++17 -->
<g id="node8" class="node">
<title>Language/C++17</title>
<polygon fill="white" stroke="black" points="449.5,-252 318,-252 318,-216 449.5,-216 449.5,-252"/>
<text text-anchor="middle" x="383.75" y="-229.7" font-family="Monaco" font-size="14.00">Language/C++17</text>
</g>
<!-- Language/C++17&#45;&gt;Compiler/clang -->
<g id="edge6" class="edge">
<title>Language/C++17&#45;&gt;Compiler/clang</title>
<path fill="none" stroke="black" d="M357.28,-215.52C340.96,-204.74 320.14,-190.99 303.89,-180.26"/>
</g>
</g>
</svg>
