<?xml version="1.0" encoding="UTF-8" standalone="no"?>
<!DOCTYPE svg PUBLIC "-//W3C//DTD SVG 1.1//EN"
 "http://www.w3.org/Graphics/SVG/1.1/DTD/svg11.dtd">
<!-- Generated by graphviz version 2.43.20190912.0211 (20190912.0211)
 -->
<!-- Title: G Pages: 1 -->
<svg width="463pt" height="332pt"
 viewBox="0.00 0.00 462.50 332.00" xmlns="http://www.w3.org/2000/svg" xmlns:xlink="http://www.w3.org/1999/xlink">
<g id="graph0" class="graph" transform="scale(1 1) rotate(0) translate(4 328)">
<title>G</title>
<polygon fill="white" stroke="transparent" points="-4,4 -4,-328 458.5,-328 458.5,4 -4,4"/>
<!-- Variant/debug -->
<g id="node1" class="node">
<title>Variant/debug</title>
<polygon fill="lightblue" stroke="black" stroke-width="2" points="114,-36 0,-36 0,0 114,0 114,-36"/>
<text text-anchor="middle" x="57" y="-14.3" font-family="Monaco" font-size="14.00">Variant/debug</text>
</g>
<!-- variant -->
<g id="node2" class="node">
<title>variant</title>
<polygon fill="lightgrey" stroke="black" points="89.5,-108 24.5,-108 24.5,-72 89.5,-72 89.5,-108"/>
<text text-anchor="middle" x="57" y="-86.3" font-family="Monaco" font-size="14.00">variant</text>
</g>
<!-- variant&#45;&gt;Variant/debug -->
<g id="edge1" class="edge">
<title>variant&#45;&gt;Variant/debug</title>
<path fill="none" stroke="black" d="M57,-71.7C57,-60.85 57,-46.92 57,-36.1"/>
</g>
<!-- Platform/linux -->
<g id="node3" class="node">
<title>Platform/linux</title>
<polygon fill="lightblue" stroke="black" stroke-width="2" points="113.5,-180 0.5,-180 0.5,-144 113.5,-144 113.5,-180"/>
<text text-anchor="middle" x="57" y="-158.3" font-family="Monaco" font-size="14.00">Platform/linux</text>
</g>
<!-- Platform/linux&#45;&gt;variant -->
<g id="edge2" class="edge">
<title>Platform/linux&#45;&gt;variant</title>
<path fill="none" stroke="black" d="M57,-143.7C57,-135.98 57,-126.71 57,-118.11"/>
<polygon fill="black" stroke="black" points="60.5,-118.1 57,-108.1 53.5,-118.1 60.5,-118.1"/>
</g>
<!-- platform -->
<g id="node4" class="node">
<title>platform</title>
<polygon fill="lightgrey" stroke="black" points="94.5,-252 19.5,-252 19.5,-216 94.5,-216 94.5,-252"/>
<text text-anchor="middle" x="57" y="-230.3" font-family="Monaco" font-size="14.00">platform</text>
</g>
<!-- platform&#45;&gt;Platform/linux -->
<g id="edge3" class="edge">
<title>platform&#45;&gt;Platform/linux</title>
<path fill="none" stroke="black" d="M57,-215.7C57,-204.85 57,-190.92 57,-180.1"/>
</g>
<!-- lib -->
<g id="node5" class="node">
<title>lib</title>
<polygon fill="orange" stroke="black" stroke-width="2" points="84,-324 30,-324 30,-288 84,-288 84,-324"/>
<text text-anchor="middle" x="57" y="-302.3" font-family="Monaco" font-size="14.00">lib</text>
</g>
<!-- lib&#45;&gt;platform -->
<g id="edge4" class="edge">
<title>lib&#45;&gt;platform</title>
<path fill="none" stroke="#000000" stroke-opacity="0.372549" d="M57,-287.7C57,-279.98 57,-270.71 57,-262.11"/>
<polygon fill="none" stroke="#000000" stroke-opacity="0.372549" points="60.5,-262.1 57,-252.1 53.5,-262.1 60.5,-262.1"/>
</g>
<!-- Compiler/clang -->
<g id="node6" class="node">
<title>Compiler/clang</title>
<polygon fill="lightblue" stroke="black" points="327.5,-180 206.5,-180 206.5,-144 327.5,-144 327.5,-180"/>
<text text-anchor="middle" x="267" y="-158.3" font-family="Monaco" font-size="14.00">Compiler/clang</text>
</g>
<!-- Language/C++14 -->
<g id="node7" class="node">
<title>Language/C++14</title>
<polygon fill="white" stroke="black" stroke-width="2" points="295.5,-252 154.5,-252 154.5,-216 295.5,-216 295.5,-252"/>
<text text-anchor="middle" x="225" y="-230.3" font-family="Monaco" font-size="14.00">Language/C++14</text>
</g>
<!-- Language/C++14&#45;&gt;Compiler/clang -->
<g id="edge5" class="edge">
<title>Language/C++14&#45;&gt;Compiler/clang</title>
<path fill="none" stroke="black" d="M235.38,-215.7C241.89,-204.85 250.25,-190.92 256.74,-180.1"/>
</g>
<!-- Language/C++17 -->
<g id="node8" class="node">
<title>Language/C++17</title>
<polygon fill="white" stroke="black" points="454.5,-252 313.5,-252 313.5,-216 454.5,-216 454.5,-252"/>
<text text-anchor="middle" x="384" y="-230.3" font-family="Monaco" font-size="14.00">Language/C++17</text>
</g>
<!-- Language/C++17&#45;&gt;Compiler/clang -->
<g id="edge6" class="edge">
<title>Language/C++17&#45;&gt;Compiler/clang</title>
<path fill="none" stroke="black" d="M355.38,-215.88C337.25,-205.03 313.88,-191.05 295.73,-180.19"/>
</g>
</g>
</svg>
