<?xml version="1.0" encoding="UTF-8" standalone="no"?>
<!DOCTYPE svg PUBLIC "-//W3C//DTD SVG 1.1//EN"
 "http://www.w3.org/Graphics/SVG/1.1/DTD/svg11.dtd">
<!-- Generated by graphviz version 2.40.1 (20161225.0304)
 -->
<!-- Title: G Pages: 1 -->
<svg width="465pt" height="332pt"
 viewBox="0.00 0.00 465.00 332.00" xmlns="http://www.w3.org/2000/svg" xmlns:xlink="http://www.w3.org/1999/xlink">
<g id="graph0" class="graph" transform="scale(1 1) rotate(0) translate(4 328)">
<title>G</title>
<polygon fill="#ffffff" stroke="transparent" points="-4,4 -4,-328 461,-328 461,4 -4,4"/>
<!-- Variant/debug -->
<g id="node1" class="node">
<title>Variant/debug</title>
<polygon fill="#add8e6" stroke="#000000" stroke-width="2" points="130,-36 4,-36 4,0 130,0 130,-36"/>
<text text-anchor="middle" x="67" y="-14.3" font-family="Monaco" font-size="14.00" fill="#000000">Variant/debug</text>
</g>
<!-- variant -->
<g id="node2" class="node">
<title>variant</title>
<polygon fill="#d3d3d3" stroke="#000000" points="104.5,-108 29.5,-108 29.5,-72 104.5,-72 104.5,-108"/>
<text text-anchor="middle" x="67" y="-86.3" font-family="Monaco" font-size="14.00" fill="#000000">variant</text>
</g>
<!-- variant&#45;&gt;Variant/debug -->
<g id="edge1" class="edge">
<title>variant&#45;&gt;Variant/debug</title>
<path fill="none" stroke="#000000" d="M67,-71.8314C67,-61 67,-47.2876 67,-36.4133"/>
</g>
<!-- Platform/linux -->
<g id="node3" class="node">
<title>Platform/linux</title>
<polygon fill="#add8e6" stroke="#000000" stroke-width="2" points="134,-180 0,-180 0,-144 134,-144 134,-180"/>
<text text-anchor="middle" x="67" y="-158.3" font-family="Monaco" font-size="14.00" fill="#000000">Platform/linux</text>
</g>
<!-- Platform/linux&#45;&gt;variant -->
<g id="edge2" class="edge">
<title>Platform/linux&#45;&gt;variant</title>
<path fill="none" stroke="#000000" d="M67,-143.8314C67,-136.131 67,-126.9743 67,-118.4166"/>
<polygon fill="#000000" stroke="#000000" points="70.5001,-118.4132 67,-108.4133 63.5001,-118.4133 70.5001,-118.4132"/>
</g>
<!-- platform -->
<g id="node4" class="node">
<title>platform</title>
<polygon fill="#d3d3d3" stroke="#000000" points="109,-252 25,-252 25,-216 109,-216 109,-252"/>
<text text-anchor="middle" x="67" y="-230.3" font-family="Monaco" font-size="14.00" fill="#000000">platform</text>
</g>
<!-- platform&#45;&gt;Platform/linux -->
<g id="edge3" class="edge">
<title>platform&#45;&gt;Platform/linux</title>
<path fill="none" stroke="#000000" d="M67,-215.8314C67,-205 67,-191.2876 67,-180.4133"/>
</g>
<!-- lib -->
<g id="node5" class="node">
<title>lib</title>
<polygon fill="#ffa500" stroke="#000000" stroke-width="2" points="94,-324 40,-324 40,-288 94,-288 94,-324"/>
<text text-anchor="middle" x="67" y="-302.3" font-family="Monaco" font-size="14.00" fill="#000000">lib</text>
</g>
<!-- lib&#45;&gt;platform -->
<g id="edge4" class="edge">
<title>lib&#45;&gt;platform</title>
<path fill="none" stroke="#000000" stroke-opacity="0.372549" d="M67,-287.8314C67,-280.131 67,-270.9743 67,-262.4166"/>
<polygon fill="none" stroke="#000000" stroke-opacity="0.372549" points="70.5001,-262.4132 67,-252.4133 63.5001,-262.4133 70.5001,-262.4132"/>
</g>
<!-- Compiler/clang -->
<g id="node6" class="node">
<title>Compiler/clang</title>
<polygon fill="#add8e6" stroke="#000000" points="349,-180 215,-180 215,-144 349,-144 349,-180"/>
<text text-anchor="middle" x="282" y="-158.3" font-family="Monaco" font-size="14.00" fill="#000000">Compiler/clang</text>
</g>
<!-- Language/C++14 -->
<g id="node7" class="node">
<title>Language/C++14</title>
<polygon fill="#ffffff" stroke="#000000" stroke-width="2" points="305,-252 171,-252 171,-216 305,-216 305,-252"/>
<text text-anchor="middle" x="238" y="-230.3" font-family="Monaco" font-size="14.00" fill="#000000">Language/C++14</text>
</g>
<!-- Language/C++14&#45;&gt;Compiler/clang -->
<g id="edge5" class="edge">
<title>Language/C++14&#45;&gt;Compiler/clang</title>
<path fill="none" stroke="#000000" d="M249.1031,-215.8314C255.7222,-205 264.102,-191.2876 270.7474,-180.4133"/>
</g>
<!-- Language/C++17 -->
<g id="node8" class="node">
<title>Language/C++17</title>
<polygon fill="#ffffff" stroke="#000000" points="457,-252 323,-252 323,-216 457,-216 457,-252"/>
<text text-anchor="middle" x="390" y="-230.3" font-family="Monaco" font-size="14.00" fill="#000000">Language/C++17</text>
</g>
<!-- Language/C++17&#45;&gt;Compiler/clang -->
<g id="edge6" class="edge">
<title>Language/C++17&#45;&gt;Compiler/clang</title>
<path fill="none" stroke="#000000" d="M362.747,-215.8314C346.3751,-204.9167 325.6147,-191.0764 309.2442,-180.1628"/>
</g>
</g>
</svg>
