<?xml version="1.0" encoding="UTF-8" standalone="no"?>
<!DOCTYPE svg PUBLIC "-//W3C//DTD SVG 1.1//EN"
 "http://www.w3.org/Graphics/SVG/1.1/DTD/svg11.dtd">
<!-- Generated by graphviz version 2.40.1 (20161225.0304)
 -->
<!-- Title: G Pages: 1 -->
<svg width="472pt" height="332pt"
 viewBox="0.00 0.00 471.50 332.00" xmlns="http://www.w3.org/2000/svg" xmlns:xlink="http://www.w3.org/1999/xlink">
<g id="graph0" class="graph" transform="scale(1 1) rotate(0) translate(4 328)">
<title>G</title>
<polygon fill="#ffffff" stroke="transparent" points="-4,4 -4,-328 467.5,-328 467.5,4 -4,4"/>
<!-- Variant/debug -->
<g id="node1" class="node">
<title>Variant/debug</title>
<polygon fill="#add8e6" stroke="#000000" stroke-width="2" points="117,-36 0,-36 0,0 117,0 117,-36"/>
<text text-anchor="middle" x="58.5" y="-14.3" font-family="Monaco" font-size="14.00" fill="#000000">Variant/debug</text>
</g>
<!-- variant -->
<g id="node2" class="node">
<title>variant</title>
<polygon fill="#d3d3d3" stroke="#000000" points="92,-108 25,-108 25,-72 92,-72 92,-108"/>
<text text-anchor="middle" x="58.5" y="-86.3" font-family="Monaco" font-size="14.00" fill="#000000">variant</text>
</g>
<!-- variant&#45;&gt;Variant/debug -->
<g id="edge1" class="edge">
<title>variant&#45;&gt;Variant/debug</title>
<path fill="none" stroke="#000000" d="M58.5,-71.8314C58.5,-61 58.5,-47.2876 58.5,-36.4133"/>
</g>
<!-- Platform/linux -->
<g id="node3" class="node">
<title>Platform/linux</title>
<polygon fill="#add8e6" stroke="#000000" stroke-width="2" points="116.5,-180 .5,-180 .5,-144 116.5,-144 116.5,-180"/>
<text text-anchor="middle" x="58.5" y="-158.3" font-family="Monaco" font-size="14.00" fill="#000000">Platform/linux</text>
</g>
<!-- Platform/linux&#45;&gt;variant -->
<g id="edge2" class="edge">
<title>Platform/linux&#45;&gt;variant</title>
<path fill="none" stroke="#000000" d="M58.5,-143.8314C58.5,-136.131 58.5,-126.9743 58.5,-118.4166"/>
<polygon fill="#000000" stroke="#000000" points="62.0001,-118.4132 58.5,-108.4133 55.0001,-118.4133 62.0001,-118.4132"/>
</g>
<!-- platform -->
<g id="node4" class="node">
<title>platform</title>
<polygon fill="#d3d3d3" stroke="#000000" points="97.5,-252 19.5,-252 19.5,-216 97.5,-216 97.5,-252"/>
<text text-anchor="middle" x="58.5" y="-230.3" font-family="Monaco" font-size="14.00" fill="#000000">platform</text>
</g>
<!-- platform&#45;&gt;Platform/linux -->
<g id="edge3" class="edge">
<title>platform&#45;&gt;Platform/linux</title>
<path fill="none" stroke="#000000" d="M58.5,-215.8314C58.5,-205 58.5,-191.2876 58.5,-180.4133"/>
</g>
<!-- lib -->
<g id="node5" class="node">
<title>lib</title>
<polygon fill="#ffa500" stroke="#000000" stroke-width="2" points="85.5,-324 31.5,-324 31.5,-288 85.5,-288 85.5,-324"/>
<text text-anchor="middle" x="58.5" y="-302.3" font-family="Monaco" font-size="14.00" fill="#000000">lib</text>
</g>
<!-- lib&#45;&gt;platform -->
<g id="edge4" class="edge">
<title>lib&#45;&gt;platform</title>
<path fill="none" stroke="#000000" stroke-opacity="0.372549" d="M58.5,-287.8314C58.5,-280.131 58.5,-270.9743 58.5,-262.4166"/>
<polygon fill="none" stroke="#000000" stroke-opacity="0.372549" points="62.0001,-262.4132 58.5,-252.4133 55.0001,-262.4133 62.0001,-262.4132"/>
</g>
<!-- Compiler/clang -->
<g id="node6" class="node">
<title>Compiler/clang</title>
<polygon fill="#add8e6" stroke="#000000" points="334.5,-180 210.5,-180 210.5,-144 334.5,-144 334.5,-180"/>
<text text-anchor="middle" x="272.5" y="-158.3" font-family="Monaco" font-size="14.00" fill="#000000">Compiler/clang</text>
</g>
<!-- Language/C++14 -->
<g id="node7" class="node">
<title>Language/C++14</title>
<polygon fill="#ffffff" stroke="#000000" stroke-width="2" points="301.5,-252 157.5,-252 157.5,-216 301.5,-216 301.5,-252"/>
<text text-anchor="middle" x="229.5" y="-230.3" font-family="Monaco" font-size="14.00" fill="#000000">Language/C++14</text>
</g>
<!-- Language/C++14&#45;&gt;Compiler/clang -->
<g id="edge5" class="edge">
<title>Language/C++14&#45;&gt;Compiler/clang</title>
<path fill="none" stroke="#000000" d="M240.3507,-215.8314C246.8194,-205 255.0088,-191.2876 261.5032,-180.4133"/>
</g>
<!-- Language/C++17 -->
<g id="node8" class="node">
<title>Language/C++17</title>
<polygon fill="#ffffff" stroke="#000000" points="463.5,-252 319.5,-252 319.5,-216 463.5,-216 463.5,-252"/>
<text text-anchor="middle" x="391.5" y="-230.3" font-family="Monaco" font-size="14.00" fill="#000000">Language/C++17</text>
</g>
<!-- Language/C++17&#45;&gt;Compiler/clang -->
<g id="edge6" class="edge">
<title>Language/C++17&#45;&gt;Compiler/clang</title>
<path fill="none" stroke="#000000" d="M361.4713,-215.8314C343.4318,-204.9167 320.5569,-191.0764 302.5191,-180.1628"/>
</g>
</g>
</svg>
