<?xml version="1.0" encoding="UTF-8" standalone="no"?>
<!DOCTYPE svg PUBLIC "-//W3C//DTD SVG 1.1//EN"
 "http://www.w3.org/Graphics/SVG/1.1/DTD/svg11.dtd">
<!-- Generated by graphviz version 2.40.1 (20161225.0304)
 -->
<!-- Title: G Pages: 1 -->
<svg width="400pt" height="404pt"
 viewBox="0.00 0.00 400.00 404.00" xmlns="http://www.w3.org/2000/svg" xmlns:xlink="http://www.w3.org/1999/xlink">
<g id="graph0" class="graph" transform="scale(1 1) rotate(0) translate(4 400)">
<title>G</title>
<polygon fill="#ffffff" stroke="transparent" points="-4,4 -4,-400 396,-400 396,4 -4,4"/>
<!-- Variant/debug -->
<g id="node1" class="node">
<title>Variant/debug</title>
<polygon fill="#add8e6" stroke="#000000" stroke-width="2" points="268.5,-36 151.5,-36 151.5,0 268.5,0 268.5,-36"/>
<text text-anchor="middle" x="210" y="-14.3" font-family="Monaco" font-size="14.00" fill="#000000">Variant/debug</text>
</g>
<!-- variant -->
<g id="node2" class="node">
<title>variant</title>
<polygon fill="#d3d3d3" stroke="#000000" points="243.5,-108 176.5,-108 176.5,-72 243.5,-72 243.5,-108"/>
<text text-anchor="middle" x="210" y="-86.3" font-family="Monaco" font-size="14.00" fill="#000000">variant</text>
</g>
<!-- variant&#45;&gt;Variant/debug -->
<g id="edge1" class="edge">
<title>variant&#45;&gt;Variant/debug</title>
<path fill="none" stroke="#000000" d="M210,-71.8314C210,-61 210,-47.2876 210,-36.4133"/>
</g>
<!-- Platform/linux -->
<g id="node3" class="node">
<title>Platform/linux</title>
<polygon fill="#add8e6" stroke="#000000" stroke-width="2" points="268,-180 152,-180 152,-144 268,-144 268,-180"/>
<text text-anchor="middle" x="210" y="-158.3" font-family="Monaco" font-size="14.00" fill="#000000">Platform/linux</text>
</g>
<!-- Platform/linux&#45;&gt;variant -->
<g id="edge2" class="edge">
<title>Platform/linux&#45;&gt;variant</title>
<path fill="none" stroke="#000000" d="M210,-143.8314C210,-136.131 210,-126.9743 210,-118.4166"/>
<polygon fill="#000000" stroke="#000000" points="213.5001,-118.4132 210,-108.4133 206.5001,-118.4133 213.5001,-118.4132"/>
</g>
<!-- platform -->
<g id="node4" class="node">
<title>platform</title>
<polygon fill="#d3d3d3" stroke="#000000" points="230,-252 152,-252 152,-216 230,-216 230,-252"/>
<text text-anchor="middle" x="191" y="-230.3" font-family="Monaco" font-size="14.00" fill="#000000">platform</text>
</g>
<!-- platform&#45;&gt;Platform/linux -->
<g id="edge3" class="edge">
<title>platform&#45;&gt;Platform/linux</title>
<path fill="none" stroke="#000000" d="M195.7945,-215.8314C198.6528,-205 202.2713,-191.2876 205.1409,-180.4133"/>
</g>
<!-- Compiler/clang -->
<g id="node5" class="node">
<title>Compiler/clang</title>
<polygon fill="#add8e6" stroke="#000000" points="134,-180 10,-180 10,-144 134,-144 134,-180"/>
<text text-anchor="middle" x="72" y="-158.3" font-family="Monaco" font-size="14.00" fill="#000000">Compiler/clang</text>
</g>
<!-- Language/C++14 -->
<g id="node6" class="node">
<title>Language/C++14</title>
<polygon fill="#ffffff" stroke="#000000" stroke-width="2" points="144,-324 0,-324 0,-288 144,-288 144,-324"/>
<text text-anchor="middle" x="72" y="-302.3" font-family="Monaco" font-size="14.00" fill="#000000">Language/C++14</text>
</g>
<!-- Language/C++14&#45;&gt;Compiler/clang -->
<g id="edge4" class="edge">
<title>Language/C++14&#45;&gt;Compiler/clang</title>
<path fill="none" stroke="#000000" d="M72,-287.7623C72,-260.0633 72,-207.7005 72,-180.0896"/>
</g>
<!-- Language/C++17 -->
<g id="node7" class="node">
<title>Language/C++17</title>
<polygon fill="#ffffff" stroke="#000000" stroke-width="2" points="392,-252 248,-252 248,-216 392,-216 392,-252"/>
<text text-anchor="middle" x="320" y="-230.3" font-family="Monaco" font-size="14.00" fill="#000000">Language/C++17</text>
</g>
<!-- Language/C++17&#45;&gt;Compiler/clang -->
<g id="edge5" class="edge">
<title>Language/C++17&#45;&gt;Compiler/clang</title>
<path fill="none" stroke="#000000" d="M257.7392,-215.9243C220.0037,-204.9688 172.0266,-191.04 134.2864,-180.0831"/>
</g>
<!-- lib -->
<g id="node8" class="node">
<title>lib</title>
<polygon fill="#ffffff" stroke="#000000" stroke-width="2" points="292,-324 238,-324 238,-288 292,-288 292,-324"/>
<text text-anchor="middle" x="265" y="-302.3" font-family="Monaco" font-size="14.00" fill="#000000">lib</text>
</g>
<!-- lib&#45;&gt;platform -->
<g id="edge6" class="edge">
<title>lib&#45;&gt;platform</title>
<path fill="none" stroke="#000000" stroke-opacity="0.372549" d="M246.3267,-287.8314C237.4751,-279.219 226.7514,-268.7851 217.1105,-259.4048"/>
<polygon fill="none" stroke="#000000" stroke-opacity="0.372549" points="219.2754,-256.6279 209.6674,-252.1628 214.3939,-261.645 219.2754,-256.6279"/>
</g>
<!-- lib&#45;&gt;Language/C++17 -->
<g id="edge7" class="edge">
<title>lib&#45;&gt;Language/C++17</title>
<path fill="none" stroke="#000000" stroke-opacity="0.372549" d="M278.8788,-287.8314C285.2136,-279.5386 292.8384,-269.557 299.7926,-260.4533"/>
<polygon fill="none" stroke="#000000" stroke-opacity="0.372549" points="302.6452,-262.4847 305.9343,-252.4133 297.0825,-258.2353 302.6452,-262.4847"/>
</g>
<!-- app -->
<g id="node9" class="node">
<title>app</title>
<polygon fill="#ffa500" stroke="#000000" stroke-width="2" points="199,-396 145,-396 145,-360 199,-360 199,-396"/>
<text text-anchor="middle" x="172" y="-374.3" font-family="Monaco" font-size="14.00" fill="#000000">app</text>
</g>
<!-- app&#45;&gt;platform -->
<g id="edge9" class="edge">
<title>app&#45;&gt;platform</title>
<path fill="none" stroke="#000000" stroke-opacity="0.372549" d="M174.4064,-359.7623C177.6471,-335.201 183.4465,-291.2474 187.2588,-262.3541"/>
<polygon fill="none" stroke="#000000" stroke-opacity="0.372549" points="190.7749,-262.4616 188.6132,-252.0896 183.8351,-261.5458 190.7749,-262.4616"/>
</g>
<!-- app&#45;&gt;Language/C++14 -->
<g id="edge10" class="edge">
<title>app&#45;&gt;Language/C++14</title>
<path fill="none" stroke="#000000" stroke-opacity="0.372549" d="M146.7658,-359.8314C134.212,-350.7927 118.8717,-339.7476 105.3609,-330.0198"/>
<polygon fill="none" stroke="#000000" stroke-opacity="0.372549" points="107.3866,-327.1655 97.2261,-324.1628 103.2964,-332.8463 107.3866,-327.1655"/>
</g>
<!-- app&#45;&gt;lib -->
<g id="edge8" class="edge">
<title>app&#45;&gt;lib</title>
<path fill="none" stroke="#000000" stroke-opacity="0.372549" d="M195.4678,-359.8314C207.0327,-350.8779 221.1404,-339.9558 233.6183,-330.2955"/>
<polygon fill="none" stroke="#000000" stroke-opacity="0.372549" points="235.775,-333.0521 241.5397,-324.1628 231.4898,-327.5171 235.775,-333.0521"/>
</g>
<!-- tests -->
<g id="node10" class="node">
<title>tests</title>
<polygon fill="#ffa500" stroke="#000000" stroke-width="2" points="292,-396 238,-396 238,-360 292,-360 292,-396"/>
<text text-anchor="middle" x="265" y="-374.3" font-family="Monaco" font-size="14.00" fill="#000000">tests</text>
</g>
<!-- tests&#45;&gt;platform -->
<g id="edge12" class="edge">
<title>tests&#45;&gt;platform</title>
<path fill="none" stroke="#000000" stroke-opacity="0.372549" d="M251.438,-359.5475C244.2749,-349.3566 235.6216,-336.3027 229,-324 218.0804,-303.712 208.0496,-279.6131 201.039,-261.4605"/>
<polygon fill="none" stroke="#000000" stroke-opacity="0.372549" points="204.2882,-260.1576 197.4685,-252.0494 197.7434,-262.6407 204.2882,-260.1576"/>
</g>
<!-- tests&#45;&gt;Language/C++17 -->
<g id="edge13" class="edge">
<title>tests&#45;&gt;Language/C++17</title>
<path fill="none" stroke="#000000" stroke-opacity="0.372549" d="M279.8853,-359.5185C287.2462,-349.5296 295.672,-336.6716 301,-324 309.3306,-304.1876 314.1533,-280.3321 316.8541,-262.1605"/>
<polygon fill="none" stroke="#000000" stroke-opacity="0.372549" points="320.3302,-262.5721 318.2095,-252.1917 313.3941,-261.6289 320.3302,-262.5721"/>
</g>
<!-- tests&#45;&gt;lib -->
<g id="edge11" class="edge">
<title>tests&#45;&gt;lib</title>
<path fill="none" stroke="#000000" stroke-opacity="0.372549" d="M265,-359.8314C265,-352.131 265,-342.9743 265,-334.4166"/>
<polygon fill="none" stroke="#000000" stroke-opacity="0.372549" points="268.5001,-334.4132 265,-324.4133 261.5001,-334.4133 268.5001,-334.4132"/>
</g>
</g>
</svg>
