<?xml version="1.0" encoding="UTF-8" standalone="no"?>
<!DOCTYPE svg PUBLIC "-//W3C//DTD SVG 1.1//EN"
 "http://www.w3.org/Graphics/SVG/1.1/DTD/svg11.dtd">
<!-- Generated by graphviz version 12.2.1 (20241206.2353)
 -->
<!-- Title: G Pages: 1 -->
<svg width="382pt" height="404pt"
 viewBox="0.00 0.00 381.50 404.00" xmlns="http://www.w3.org/2000/svg" xmlns:xlink="http://www.w3.org/1999/xlink">
<g id="graph0" class="graph" transform="scale(1 1) rotate(0) translate(4 400)">
<title>G</title>
<polygon fill="white" stroke="none" points="-4,4 -4,-400 377.5,-400 377.5,4 -4,4"/>
<!-- Variant/debug -->
<g id="node1" class="node">
<title>Variant/debug</title>
<polygon fill="lightblue" stroke="black" stroke-width="2" points="277.38,-36 154.12,-36 154.12,0 277.38,0 277.38,-36"/>
<text text-anchor="middle" x="215.75" y="-13.7" font-family="Monaco" font-size="14.00">Variant/debug</text>
</g>
<!-- variant -->
<g id="node2" class="node">
<title>variant</title>
<polygon fill="white" stroke="black" points="252.62,-108 178.88,-108 178.88,-72 252.62,-72 252.62,-108"/>
<text text-anchor="middle" x="215.75" y="-85.7" font-family="Monaco" font-size="14.00">variant</text>
</g>
<!-- variant&#45;&gt;Variant/debug -->
<g id="edge1" class="edge">
<title>variant&#45;&gt;Variant/debug</title>
<path fill="none" stroke="black" d="M215.75,-71.7C215.75,-61.01 215.75,-47.33 215.75,-36.59"/>
</g>
<!-- Platform/linux -->
<g id="node3" class="node">
<title>Platform/linux</title>
<polygon fill="lightblue" stroke="black" stroke-width="2" points="281.5,-180 150,-180 150,-144 281.5,-144 281.5,-180"/>
<text text-anchor="middle" x="215.75" y="-157.7" font-family="Monaco" font-size="14.00">Platform/linux</text>
</g>
<!-- Platform/linux&#45;&gt;variant -->
<g id="edge2" class="edge">
<title>Platform/linux&#45;&gt;variant</title>
<path fill="none" stroke="black" d="M215.75,-143.34C215.75,-136.24 215.75,-127.86 215.75,-119.92"/>
<polygon fill="black" stroke="black" points="219.25,-119.93 215.75,-109.93 212.25,-119.93 219.25,-119.93"/>
</g>
<!-- platform -->
<g id="node4" class="node">
<title>platform</title>
<polygon fill="white" stroke="black" points="223.75,-252 141.75,-252 141.75,-216 223.75,-216 223.75,-252"/>
<text text-anchor="middle" x="182.75" y="-229.7" font-family="Monaco" font-size="14.00">platform</text>
</g>
<!-- platform&#45;&gt;Platform/linux -->
<g id="edge3" class="edge">
<title>platform&#45;&gt;Platform/linux</title>
<path fill="none" stroke="black" d="M190.91,-215.7C195.95,-205.01 202.39,-191.33 207.46,-180.59"/>
</g>
<!-- Compiler/clang -->
<g id="node5" class="node">
<title>Compiler/clang</title>
<polygon fill="lightblue" stroke="black" points="131.5,-180 0,-180 0,-144 131.5,-144 131.5,-180"/>
<text text-anchor="middle" x="65.75" y="-157.7" font-family="Monaco" font-size="14.00">Compiler/clang</text>
</g>
<!-- Language/C++14 -->
<g id="node6" class="node">
<title>Language/C++14</title>
<polygon fill="white" stroke="black" stroke-width="2" points="131.5,-324 0,-324 0,-288 131.5,-288 131.5,-324"/>
<text text-anchor="middle" x="65.75" y="-301.7" font-family="Monaco" font-size="14.00">Language/C++14</text>
</g>
<!-- Language/C++14&#45;&gt;Compiler/clang -->
<g id="edge4" class="edge">
<title>Language/C++14&#45;&gt;Compiler/clang</title>
<path fill="none" stroke="black" d="M65.75,-287.02C65.75,-259.55 65.75,-207.5 65.75,-180.39"/>
</g>
<!-- Language/C++17 -->
<g id="node7" class="node">
<title>Language/C++17</title>
<polygon fill="white" stroke="black" stroke-width="2" points="373.5,-252 242,-252 242,-216 373.5,-216 373.5,-252"/>
<text text-anchor="middle" x="307.75" y="-229.7" font-family="Monaco" font-size="14.00">Language/C++17</text>
</g>
<!-- Language/C++17&#45;&gt;Compiler/clang -->
<g id="edge5" class="edge">
<title>Language/C++17&#45;&gt;Compiler/clang</title>
<path fill="none" stroke="black" d="M245.74,-215.06C208.91,-204.41 162.43,-190.96 125.92,-180.41"/>
</g>
<!-- lib -->
<g id="node8" class="node">
<title>lib</title>
<polygon fill="white" stroke="black" stroke-width="2" points="279.75,-324 225.75,-324 225.75,-288 279.75,-288 279.75,-324"/>
<text text-anchor="middle" x="252.75" y="-301.7" font-family="Monaco" font-size="14.00">lib</text>
</g>
<!-- lib&#45;&gt;platform -->
<g id="edge6" class="edge">
<title>lib&#45;&gt;platform</title>
<path fill="none" stroke="#000000" stroke-opacity="0.372549" d="M235.09,-287.34C226.9,-279.15 217.02,-269.27 208.06,-260.31"/>
<polygon fill="none" stroke="#000000" stroke-opacity="0.372549" points="210.78,-258.08 201.24,-253.49 205.83,-263.03 210.78,-258.08"/>
</g>
<!-- lib&#45;&gt;Language/C++17 -->
<g id="edge7" class="edge">
<title>lib&#45;&gt;Language/C++17</title>
<path fill="none" stroke="#000000" stroke-opacity="0.372549" d="M266.63,-287.34C272.7,-279.6 279.97,-270.36 286.69,-261.81"/>
<polygon fill="none" stroke="#000000" stroke-opacity="0.372549" points="289.32,-264.12 292.75,-254.09 283.82,-259.79 289.32,-264.12"/>
</g>
<!-- app -->
<g id="node9" class="node">
<title>app</title>
<polygon fill="white" stroke="black" stroke-width="2" points="186.75,-396 132.75,-396 132.75,-360 186.75,-360 186.75,-396"/>
<text text-anchor="middle" x="159.75" y="-373.7" font-family="Monaco" font-size="14.00">app</text>
</g>
<!-- app&#45;&gt;platform -->
<g id="edge9" class="edge">
<title>app&#45;&gt;platform</title>
<path fill="none" stroke="#000000" stroke-opacity="0.372549" d="M162.66,-359.02C166.56,-334.98 173.5,-292.13 178.11,-263.63"/>
<polygon fill="none" stroke="#000000" stroke-opacity="0.372549" points="181.55,-264.32 179.69,-253.89 174.64,-263.2 181.55,-264.32"/>
</g>
<!-- app&#45;&gt;Language/C++14 -->
<g id="edge10" class="edge">
<title>app&#45;&gt;Language/C++14</title>
<path fill="none" stroke="#000000" stroke-opacity="0.372549" d="M136.03,-359.34C124.76,-350.94 111.1,-340.77 98.84,-331.64"/>
<polygon fill="none" stroke="#000000" stroke-opacity="0.372549" points="101.11,-328.97 91,-325.81 96.93,-334.59 101.11,-328.97"/>
</g>
<!-- app&#45;&gt;lib -->
<g id="edge8" class="edge">
<title>app&#45;&gt;lib</title>
<path fill="none" stroke="#000000" stroke-opacity="0.372549" d="M183.22,-359.34C194.37,-350.94 207.88,-340.77 220.02,-331.64"/>
<polygon fill="none" stroke="#000000" stroke-opacity="0.372549" points="221.87,-334.62 227.76,-325.81 217.66,-329.03 221.87,-334.62"/>
</g>
<!-- tests -->
<g id="node10" class="node">
<title>tests</title>
<polygon fill="white" stroke="black" stroke-width="2" points="281.38,-396 224.12,-396 224.12,-360 281.38,-360 281.38,-396"/>
<text text-anchor="middle" x="252.75" y="-373.7" font-family="Monaco" font-size="14.00">tests</text>
</g>
<!-- tests&#45;&gt;platform -->
<g id="edge12" class="edge">
<title>tests&#45;&gt;platform</title>
<path fill="none" stroke="#000000" stroke-opacity="0.372549" d="M238.99,-359.01C231.77,-349.05 223.13,-336.23 216.75,-324 206.52,-304.39 197.7,-280.99 191.61,-263.1"/>
<polygon fill="none" stroke="#000000" stroke-opacity="0.372549" points="194.96,-262.07 188.49,-253.68 188.31,-264.27 194.96,-262.07"/>
</g>
<!-- tests&#45;&gt;Language/C++17 -->
<g id="edge13" class="edge">
<title>tests&#45;&gt;Language/C++17</title>
<path fill="none" stroke="#000000" stroke-opacity="0.372549" d="M267.27,-359.38C274.72,-349.52 283.33,-336.69 288.75,-324 296.92,-304.87 301.71,-281.89 304.44,-264.07"/>
<polygon fill="none" stroke="#000000" stroke-opacity="0.372549" points="307.9,-264.55 305.8,-254.16 300.97,-263.59 307.9,-264.55"/>
</g>
<!-- tests&#45;&gt;lib -->
<g id="edge11" class="edge">
<title>tests&#45;&gt;lib</title>
<path fill="none" stroke="#000000" stroke-opacity="0.372549" d="M252.75,-359.34C252.75,-352.34 252.75,-344.12 252.75,-336.28"/>
<polygon fill="none" stroke="#000000" stroke-opacity="0.372549" points="256.25,-336.42 252.75,-326.42 249.25,-336.42 256.25,-336.42"/>
</g>
</g>
</svg>
