<?xml version="1.0" encoding="UTF-8" standalone="no"?>
<!DOCTYPE svg PUBLIC "-//W3C//DTD SVG 1.1//EN"
 "http://www.w3.org/Graphics/SVG/1.1/DTD/svg11.dtd">
<!-- Generated by graphviz version 2.40.1 (20161225.0304)
 -->
<!-- Title: G Pages: 1 -->
<svg width="385pt" height="404pt"
 viewBox="0.00 0.00 385.00 404.00" xmlns="http://www.w3.org/2000/svg" xmlns:xlink="http://www.w3.org/1999/xlink">
<g id="graph0" class="graph" transform="scale(1 1) rotate(0) translate(4 400)">
<title>G</title>
<polygon fill="#ffffff" stroke="transparent" points="-4,4 -4,-400 381,-400 381,4 -4,4"/>
<!-- Variant/debug -->
<g id="node1" class="node">
<title>Variant/debug</title>
<polygon fill="#add8e6" stroke="#000000" stroke-width="2" points="282,-36 156,-36 156,0 282,0 282,-36"/>
<text text-anchor="middle" x="219" y="-14.3" font-family="Monaco" font-size="14.00" fill="#000000">Variant/debug</text>
</g>
<!-- variant -->
<g id="node2" class="node">
<title>variant</title>
<polygon fill="#d3d3d3" stroke="#000000" points="256.5,-108 181.5,-108 181.5,-72 256.5,-72 256.5,-108"/>
<text text-anchor="middle" x="219" y="-86.3" font-family="Monaco" font-size="14.00" fill="#000000">variant</text>
</g>
<!-- variant&#45;&gt;Variant/debug -->
<g id="edge1" class="edge">
<title>variant&#45;&gt;Variant/debug</title>
<path fill="none" stroke="#000000" d="M219,-71.8314C219,-61 219,-47.2876 219,-36.4133"/>
</g>
<!-- Platform/linux -->
<g id="node3" class="node">
<title>Platform/linux</title>
<polygon fill="#add8e6" stroke="#000000" stroke-width="2" points="286,-180 152,-180 152,-144 286,-144 286,-180"/>
<text text-anchor="middle" x="219" y="-158.3" font-family="Monaco" font-size="14.00" fill="#000000">Platform/linux</text>
</g>
<!-- Platform/linux&#45;&gt;variant -->
<g id="edge2" class="edge">
<title>Platform/linux&#45;&gt;variant</title>
<path fill="none" stroke="#000000" d="M219,-143.8314C219,-136.131 219,-126.9743 219,-118.4166"/>
<polygon fill="#000000" stroke="#000000" points="222.5001,-118.4132 219,-108.4133 215.5001,-118.4133 222.5001,-118.4132"/>
</g>
<!-- platform -->
<g id="node4" class="node">
<title>platform</title>
<polygon fill="#d3d3d3" stroke="#000000" points="225,-252 141,-252 141,-216 225,-216 225,-252"/>
<text text-anchor="middle" x="183" y="-230.3" font-family="Monaco" font-size="14.00" fill="#000000">platform</text>
</g>
<!-- platform&#45;&gt;Platform/linux -->
<g id="edge3" class="edge">
<title>platform&#45;&gt;Platform/linux</title>
<path fill="none" stroke="#000000" d="M192.0843,-215.8314C197.5,-205 204.3562,-191.2876 209.7934,-180.4133"/>
</g>
<!-- Compiler/clang -->
<g id="node5" class="node">
<title>Compiler/clang</title>
<polygon fill="#add8e6" stroke="#000000" points="134,-180 0,-180 0,-144 134,-144 134,-180"/>
<text text-anchor="middle" x="67" y="-158.3" font-family="Monaco" font-size="14.00" fill="#000000">Compiler/clang</text>
</g>
<!-- Language/C++14 -->
<g id="node6" class="node">
<title>Language/C++14</title>
<polygon fill="#ffffff" stroke="#000000" stroke-width="2" points="134,-324 0,-324 0,-288 134,-288 134,-324"/>
<text text-anchor="middle" x="67" y="-302.3" font-family="Monaco" font-size="14.00" fill="#000000">Language/C++14</text>
</g>
<!-- Language/C++14&#45;&gt;Compiler/clang -->
<g id="edge4" class="edge">
<title>Language/C++14&#45;&gt;Compiler/clang</title>
<path fill="none" stroke="#000000" d="M67,-287.7623C67,-260.0633 67,-207.7005 67,-180.0896"/>
</g>
<!-- Language/C++17 -->
<g id="node7" class="node">
<title>Language/C++17</title>
<polygon fill="#ffffff" stroke="#000000" stroke-width="2" points="377,-252 243,-252 243,-216 377,-216 377,-252"/>
<text text-anchor="middle" x="310" y="-230.3" font-family="Monaco" font-size="14.00" fill="#000000">Language/C++17</text>
</g>
<!-- Language/C++17&#45;&gt;Compiler/clang -->
<g id="edge5" class="edge">
<title>Language/C++17&#45;&gt;Compiler/clang</title>
<path fill="none" stroke="#000000" d="M248.9945,-215.9243C212.0197,-204.9688 165.0099,-191.04 128.0306,-180.0831"/>
</g>
<!-- lib -->
<g id="node8" class="node">
<title>lib</title>
<polygon fill="#ffffff" stroke="#000000" stroke-width="2" points="282,-324 228,-324 228,-288 282,-288 282,-324"/>
<text text-anchor="middle" x="255" y="-302.3" font-family="Monaco" font-size="14.00" fill="#000000">lib</text>
</g>
<!-- lib&#45;&gt;platform -->
<g id="edge6" class="edge">
<title>lib&#45;&gt;platform</title>
<path fill="none" stroke="#000000" stroke-opacity="0.372549" d="M236.8314,-287.8314C228.2848,-279.2848 217.9443,-268.9443 208.6198,-259.6198"/>
<polygon fill="none" stroke="#000000" stroke-opacity="0.372549" points="210.9592,-257.0095 201.4133,-252.4133 206.0095,-261.9592 210.9592,-257.0095"/>
</g>
<!-- lib&#45;&gt;Language/C++17 -->
<g id="edge7" class="edge">
<title>lib&#45;&gt;Language/C++17</title>
<path fill="none" stroke="#000000" stroke-opacity="0.372549" d="M268.8788,-287.8314C275.2136,-279.5386 282.8384,-269.557 289.7926,-260.4533"/>
<polygon fill="none" stroke="#000000" stroke-opacity="0.372549" points="292.6452,-262.4847 295.9343,-252.4133 287.0825,-258.2353 292.6452,-262.4847"/>
</g>
<!-- app -->
<g id="node9" class="node">
<title>app</title>
<polygon fill="#ffa500" stroke="#000000" stroke-width="2" points="189,-396 135,-396 135,-360 189,-360 189,-396"/>
<text text-anchor="middle" x="162" y="-374.3" font-family="Monaco" font-size="14.00" fill="#000000">app</text>
</g>
<!-- app&#45;&gt;platform -->
<g id="edge9" class="edge">
<title>app&#45;&gt;platform</title>
<path fill="none" stroke="#000000" stroke-opacity="0.372549" d="M164.6597,-359.7623C168.2415,-335.201 174.6514,-291.2474 178.865,-262.3541"/>
<polygon fill="none" stroke="#000000" stroke-opacity="0.372549" points="182.3821,-262.4901 180.3619,-252.0896 175.4554,-261.4798 182.3821,-262.4901"/>
</g>
<!-- app&#45;&gt;Language/C++14 -->
<g id="edge10" class="edge">
<title>app&#45;&gt;Language/C++14</title>
<path fill="none" stroke="#000000" stroke-opacity="0.372549" d="M138.0275,-359.8314C126.2139,-350.8779 111.8028,-339.9558 99.0565,-330.2955"/>
<polygon fill="none" stroke="#000000" stroke-opacity="0.372549" points="101.0486,-327.4137 90.9648,-324.1628 96.8205,-332.9925 101.0486,-327.4137"/>
</g>
<!-- app&#45;&gt;lib -->
<g id="edge8" class="edge">
<title>app&#45;&gt;lib</title>
<path fill="none" stroke="#000000" stroke-opacity="0.372549" d="M185.4678,-359.8314C197.0327,-350.8779 211.1404,-339.9558 223.6183,-330.2955"/>
<polygon fill="none" stroke="#000000" stroke-opacity="0.372549" points="225.775,-333.0521 231.5397,-324.1628 221.4898,-327.5171 225.775,-333.0521"/>
</g>
<!-- tests -->
<g id="node10" class="node">
<title>tests</title>
<polygon fill="#ffa500" stroke="#000000" stroke-width="2" points="284.5,-396 225.5,-396 225.5,-360 284.5,-360 284.5,-396"/>
<text text-anchor="middle" x="255" y="-374.3" font-family="Monaco" font-size="14.00" fill="#000000">tests</text>
</g>
<!-- tests&#45;&gt;platform -->
<g id="edge12" class="edge">
<title>tests&#45;&gt;platform</title>
<path fill="none" stroke="#000000" stroke-opacity="0.372549" d="M241.3445,-359.5973C234.154,-349.4209 225.5044,-336.3651 219,-324 208.4065,-303.8615 198.9605,-279.8887 192.405,-261.7501"/>
<polygon fill="none" stroke="#000000" stroke-opacity="0.372549" points="195.6176,-260.3365 188.9822,-252.0768 189.0185,-262.6716 195.6176,-260.3365"/>
</g>
<!-- tests&#45;&gt;Language/C++17 -->
<g id="edge13" class="edge">
<title>tests&#45;&gt;Language/C++17</title>
<path fill="none" stroke="#000000" stroke-opacity="0.372549" d="M269.8853,-359.5185C277.2462,-349.5296 285.672,-336.6716 291,-324 299.3306,-304.1876 304.1533,-280.3321 306.8541,-262.1605"/>
<polygon fill="none" stroke="#000000" stroke-opacity="0.372549" points="310.3302,-262.5721 308.2095,-252.1917 303.3941,-261.6289 310.3302,-262.5721"/>
</g>
<!-- tests&#45;&gt;lib -->
<g id="edge11" class="edge">
<title>tests&#45;&gt;lib</title>
<path fill="none" stroke="#000000" stroke-opacity="0.372549" d="M255,-359.8314C255,-352.131 255,-342.9743 255,-334.4166"/>
<polygon fill="none" stroke="#000000" stroke-opacity="0.372549" points="258.5001,-334.4132 255,-324.4133 251.5001,-334.4133 258.5001,-334.4132"/>
</g>
</g>
</svg>
